<svg width="52" height="204" viewBox="0 0 52 204" fill="none" xmlns="http://www.w3.org/2000/svg">
<g opacity="0.1">
<circle cx="39" cy="201" r="3" transform="rotate(180 39 201)" fill="white"/>
<circle cx="21" cy="201" r="3" transform="rotate(180 21 201)" fill="white"/>
<circle cx="3" cy="201" r="3" transform="rotate(180 3 201)" fill="white"/>
<circle cx="39" cy="183" r="3" transform="rotate(180 39 183)" fill="white"/>
<circle cx="39" cy="165" r="3" transform="rotate(180 39 165)" fill="white"/>
<circle cx="39" cy="147" r="3" transform="rotate(180 39 147)" fill="white"/>
<circle cx="39" cy="129" r="3" transform="rotate(180 39 129)" fill="white"/>
<circle cx="39" cy="111" r="3" transform="rotate(180 39 111)" fill="white"/>
<circle cx="39" cy="93" r="3" transform="rotate(180 39 93)" fill="white"/>
<circle cx="39" cy="75" r="3" transform="rotate(180 39 75)" fill="white"/>
<circle cx="39" cy="57" r="3" transform="rotate(180 39 57)" fill="white"/>
<circle cx="39" cy="39" r="3" transform="rotate(180 39 39)" fill="white"/>
<circle cx="39" cy="21" r="3" transform="rotate(180 39 21)" fill="white"/>
<circle cx="39" cy="3" r="3" transform="rotate(180 39 3)" fill="white"/>
<circle cx="21" cy="183" r="3" transform="rotate(180 21 183)" fill="white"/>
<circle cx="21" cy="165" r="3" transform="rotate(180 21 165)" fill="white"/>
<circle cx="21" cy="147" r="3" transform="rotate(180 21 147)" fill="white"/>
<circle cx="21" cy="129" r="3" transform="rotate(180 21 129)" fill="white"/>
<circle cx="21" cy="111" r="3" transform="rotate(180 21 111)" fill="white"/>
<circle cx="21" cy="93" r="3" transform="rotate(180 21 93)" fill="white"/>
<circle cx="21" cy="75" r="3" transform="rotate(180 21 75)" fill="white"/>
<circle cx="21" cy="57" r="3" transform="rotate(180 21 57)" fill="white"/>
<circle cx="21" cy="39" r="3" transform="rotate(180 21 39)" fill="white"/>
<circle cx="21" cy="21" r="3" transform="rotate(180 21 21)" fill="white"/>
<circle cx="21" cy="3" r="3" transform="rotate(180 21 3)" fill="white"/>
<circle cx="3" cy="183" r="3" transform="rotate(180 3 183)" fill="white"/>
<circle cx="3" cy="165" r="3" transform="rotate(180 3 165)" fill="white"/>
<circle cx="3" cy="147" r="3" transform="rotate(180 3 147)" fill="white"/>
<circle cx="3" cy="129" r="3" transform="rotate(180 3 129)" fill="white"/>
<circle cx="3" cy="111" r="3" transform="rotate(180 3 111)" fill="white"/>
<circle cx="3" cy="93" r="3" transform="rotate(180 3 93)" fill="white"/>
<circle cx="3" cy="75" r="3" transform="rotate(180 3 75)" fill="white"/>
<circle cx="3" cy="57" r="3" transform="rotate(180 3 57)" fill="white"/>
<circle cx="3" cy="39" r="3" transform="rotate(180 3 39)" fill="white"/>
<circle cx="3" cy="21" r="3" transform="rotate(180 3 21)" fill="white"/>
<circle cx="3" cy="3" r="3" transform="rotate(180 3 3)" fill="white"/>
</g>
</svg>
