<svg width="46" height="204" viewBox="0 0 46 204" fill="none" xmlns="http://www.w3.org/2000/svg">
<g opacity="0.07">
<circle cx="43" cy="201" r="3" transform="rotate(180 43 201)" fill="#FF3C6E"/>
<circle cx="25" cy="201" r="3" transform="rotate(180 25 201)" fill="#FF3C6E"/>
<circle cx="7" cy="201" r="3" transform="rotate(180 7 201)" fill="#FF3C6E"/>
<circle cx="43" cy="183" r="3" transform="rotate(180 43 183)" fill="#FF3C6E"/>
<circle cx="43" cy="165" r="3" transform="rotate(180 43 165)" fill="#FF3C6E"/>
<circle cx="43" cy="147" r="3" transform="rotate(180 43 147)" fill="#FF3C6E"/>
<circle cx="43" cy="129" r="3" transform="rotate(180 43 129)" fill="#FF3C6E"/>
<circle cx="43" cy="111" r="3" transform="rotate(180 43 111)" fill="#FF3C6E"/>
<circle cx="43" cy="93" r="3" transform="rotate(180 43 93)" fill="#FF3C6E"/>
<circle cx="43" cy="75" r="3" transform="rotate(180 43 75)" fill="#FF3C6E"/>
<circle cx="43" cy="57" r="3" transform="rotate(180 43 57)" fill="#FF3C6E"/>
<circle cx="43" cy="39" r="3" transform="rotate(180 43 39)" fill="#FF3C6E"/>
<circle cx="43" cy="21" r="3" transform="rotate(180 43 21)" fill="#FF3C6E"/>
<circle cx="43" cy="3" r="3" transform="rotate(180 43 3)" fill="#FF3C6E"/>
<circle cx="25" cy="183" r="3" transform="rotate(180 25 183)" fill="#FF3C6E"/>
<circle cx="25" cy="165" r="3" transform="rotate(180 25 165)" fill="#FF3C6E"/>
<circle cx="25" cy="147" r="3" transform="rotate(180 25 147)" fill="#FF3C6E"/>
<circle cx="25" cy="129" r="3" transform="rotate(180 25 129)" fill="#FF3C6E"/>
<circle cx="25" cy="111" r="3" transform="rotate(180 25 111)" fill="#FF3C6E"/>
<circle cx="25" cy="93" r="3" transform="rotate(180 25 93)" fill="#FF3C6E"/>
<circle cx="25" cy="75" r="3" transform="rotate(180 25 75)" fill="#FF3C6E"/>
<circle cx="25" cy="57" r="3" transform="rotate(180 25 57)" fill="#FF3C6E"/>
<circle cx="25" cy="39" r="3" transform="rotate(180 25 39)" fill="#FF3C6E"/>
<circle cx="25" cy="21" r="3" transform="rotate(180 25 21)" fill="#FF3C6E"/>
<circle cx="25" cy="3" r="3" transform="rotate(180 25 3)" fill="#FF3C6E"/>
<circle cx="7" cy="183" r="3" transform="rotate(180 7 183)" fill="#FF3C6E"/>
<circle cx="7" cy="165" r="3" transform="rotate(180 7 165)" fill="#FF3C6E"/>
<circle cx="7" cy="147" r="3" transform="rotate(180 7 147)" fill="#FF3C6E"/>
<circle cx="7" cy="129" r="3" transform="rotate(180 7 129)" fill="#FF3C6E"/>
<circle cx="7" cy="111" r="3" transform="rotate(180 7 111)" fill="#FF3C6E"/>
<circle cx="7" cy="93" r="3" transform="rotate(180 7 93)" fill="#FF3C6E"/>
<circle cx="7" cy="75" r="3" transform="rotate(180 7 75)" fill="#FF3C6E"/>
<circle cx="7" cy="57" r="3" transform="rotate(180 7 57)" fill="#FF3C6E"/>
<circle cx="7" cy="39" r="3" transform="rotate(180 7 39)" fill="#FF3C6E"/>
<circle cx="7" cy="21" r="3" transform="rotate(180 7 21)" fill="#FF3C6E"/>
<circle cx="7" cy="3" r="3" transform="rotate(180 7 3)" fill="#FF3C6E"/>
</g>
</svg>
