<svg width="177" height="44" viewBox="0 0 177 44" fill="none" xmlns="http://www.w3.org/2000/svg">
<path d="M38.5218 1.75744C38.5218 1.0293 39.0692 0.668839 39.7967 0.668839H41.9793C43.2542 0.668839 44.3419 1.75744 44.3419 3.03348V41.5886C44.3419 42.3168 43.7944 42.6772 43.0669 42.6772H40.6971C39.4222 42.6772 38.3345 41.5886 38.3345 40.3126L38.5218 1.75744Z" fill="white"/>
<path d="M142.994 1.75744C142.994 -0.239524 144.082 -0.607196 145.357 1.02931L170.071 30.3061C170.431 30.6666 170.618 30.6666 170.618 30.1259V2.66581C170.618 1.38977 171.706 0.301171 172.981 0.301171H175.163C175.891 0.301171 176.438 0.849075 176.438 1.57721V41.2209C176.438 43.2179 175.35 43.5856 174.075 42.1293L149.182 13.4004C148.822 13.0399 148.634 13.0399 148.634 13.5806V40.4928C148.634 41.7689 147.547 42.8574 146.272 42.8574H144.089C143.362 42.8574 142.814 42.3095 142.814 41.5814C142.994 41.4012 142.994 1.75744 142.994 1.75744Z" fill="white"/>
<path d="M105.928 1.75744C105.928 1.0293 106.288 0.668839 107.015 0.668839H129.179C129.906 0.668839 130.267 1.21674 130.087 1.75744L129.366 5.21788C129.186 5.94602 128.639 6.30648 127.911 6.30648H112.468C112.108 6.30648 111.74 6.66694 111.74 7.03462V16.4932C111.74 16.8536 112.101 17.2213 112.468 17.2213H125.189C125.916 17.2213 126.276 17.7692 126.096 18.3099L125.369 21.5829C125.189 22.311 124.641 22.6715 123.914 22.6715H112.468C112.108 22.6715 111.74 23.032 111.74 23.3996V36.1312C111.74 36.4917 112.101 36.8593 112.468 36.8593H128.459C129.186 36.8593 129.914 37.4072 130.094 37.9479L131.909 41.5814C132.269 42.1293 131.909 42.67 131.181 42.67H109.378C107.383 42.67 105.928 41.0335 105.928 39.0365V1.75744Z" fill="white"/>
<path d="M56.8683 1.94488C56.5081 1.21674 56.8683 0.668839 57.7759 0.668839H61.0461C61.7736 0.668839 62.8612 1.21674 63.2286 1.94488L75.7619 29.2247C75.9419 29.5852 76.122 29.5852 76.3093 29.2247L88.4824 1.94488C88.8426 1.21674 89.7573 0.668839 90.4776 0.668839H93.9279C94.6554 0.668839 95.2028 1.21674 94.8355 1.94488L77.0296 41.5886C76.4822 42.8647 75.3945 42.8647 74.8471 41.5886L56.8683 1.94488Z" fill="white"/>
<path d="M0 1.75744C0 1.0293 0.547431 0.668839 1.08766 0.668839H3.27018C4.54511 0.668839 5.63277 1.75744 5.63277 3.03348V36.1312C5.63277 36.4917 5.99292 36.8593 6.36028 36.8593H22.351C23.0785 36.8593 23.806 37.4072 23.9861 37.9479L25.6212 41.5814C25.8013 42.1293 25.6212 42.67 24.8937 42.67H3.63033C1.63509 42.67 0.180076 41.0335 0.180076 39.0365L0 1.75744Z" fill="white"/>
</svg>
